<?xml version="1.0" standalone="no"?>
<!DOCTYPE svg PUBLIC "-//W3C//DTD SVG 20010904//EN"
 "http://www.w3.org/TR/2001/REC-SVG-20010904/DTD/svg10.dtd">
<svg version="1.0" xmlns="http://www.w3.org/2000/svg"
 width="1400.000000pt" height="1400.000000pt" viewBox="0 0 1400.000000 1400.000000"
 preserveAspectRatio="xMidYMid meet">
<metadata>
Created by potrace 1.14, written by Peter Selinger 2001-2017
</metadata>
<g transform="translate(0.000000,1400.000000) scale(0.100000,-0.100000)"
fill="#000000" stroke="none">
<path d="M1466 9803 c-2 -10 -7 -31 -10 -48 -9 -45 -13 -63 -30 -140 -8 -39
-17 -82 -20 -95 -2 -14 -18 -88 -35 -165 -18 -77 -34 -156 -37 -175 -3 -19 -8
-38 -10 -41 -2 -3 -6 -21 -9 -40 -3 -19 -13 -63 -21 -99 -8 -36 -17 -81 -20
-100 -3 -19 -8 -38 -10 -41 -2 -3 -6 -21 -9 -40 -5 -25 -99 -466 -130 -609
-10 -46 -35 -159 -39 -180 -2 -14 -16 -79 -30 -145 -15 -66 -28 -129 -30 -140
-2 -11 -11 -50 -20 -88 -9 -37 -18 -81 -21 -99 -3 -17 -20 -95 -36 -172 -17
-78 -44 -204 -60 -281 -16 -77 -31 -147 -34 -155 -2 -8 -7 -30 -10 -48 -3 -19
-14 -71 -25 -117 -11 -46 -22 -98 -25 -116 -3 -18 -19 -94 -36 -168 -16 -75
-32 -149 -35 -166 -2 -16 -12 -59 -20 -95 -29 -124 -35 -154 -44 -199 -5 -25
-11 -55 -14 -66 -4 -19 -83 -390 -91 -430 -3 -11 -9 -40 -14 -65 -5 -25 -16
-79 -26 -120 -9 -41 -19 -86 -21 -100 -3 -14 -20 -95 -39 -180 -18 -85 -37
-171 -41 -190 -4 -19 -8 -37 -9 -40 -5 -23 -16 -90 -15 -92 1 -2 -3 -15 -8
-29 -6 -14 -13 -41 -16 -60 -3 -19 -12 -63 -20 -99 -8 -36 -17 -77 -20 -93 -3
-15 -7 -35 -10 -45 -3 -9 -7 -28 -10 -42 -2 -14 -11 -56 -20 -95 -9 -38 -18
-82 -20 -96 l-4 -27 402 0 403 0 31 147 c17 80 54 252 82 381 27 129 52 244
54 255 2 11 7 31 10 45 3 14 8 36 11 50 2 14 12 57 21 95 8 39 18 81 20 94 21
106 73 333 77 337 4 5 940 9 993 5 6 -1 19 -32 28 -69 16 -66 19 -79 31 -147
3 -16 10 -48 15 -70 9 -37 39 -174 111 -515 70 -329 89 -417 98 -448 5 -18 10
-35 10 -37 -1 -10 12 -90 17 -106 4 -15 42 -17 407 -17 l403 0 -13 62 c-7 33
-15 79 -19 101 -3 22 -7 42 -9 46 -2 3 -11 39 -20 80 -31 145 -65 305 -80 379
-9 41 -24 113 -35 160 -10 47 -21 96 -24 110 -5 29 -75 355 -82 385 -3 11 -7
31 -10 45 -2 14 -9 45 -14 70 -6 25 -12 54 -14 65 -3 11 -11 52 -20 90 -9 39
-18 81 -20 95 -5 29 -45 215 -53 245 -2 11 -6 30 -8 42 -2 11 -6 29 -9 40 -3
10 -8 32 -10 48 -3 17 -19 91 -35 165 -16 74 -32 146 -34 160 -3 14 -17 77
-31 140 -14 63 -27 126 -30 140 -6 34 -64 305 -76 355 -15 61 -160 744 -186
874 -3 12 -11 51 -19 85 -8 33 -16 72 -19 86 -2 14 -16 78 -30 142 -14 64 -27
127 -30 140 -2 13 -16 76 -30 141 -14 65 -28 133 -31 150 -3 18 -8 40 -11 49
-5 18 -9 34 -28 128 -25 118 -86 404 -96 445 -5 22 -26 118 -46 213 l-37 172
-403 0 c-375 0 -403 -1 -408 -17z m418 -1256 c3 -27 8 -52 10 -55 2 -4 7 -29
10 -57 3 -27 8 -61 11 -75 3 -14 17 -95 30 -180 28 -167 32 -192 40 -230 3
-14 7 -42 10 -64 2 -21 7 -46 9 -55 3 -9 7 -34 10 -56 3 -22 7 -49 9 -60 3
-11 8 -45 13 -75 4 -30 8 -57 9 -60 1 -3 5 -25 9 -50 5 -25 10 -52 11 -60 2
-8 6 -37 9 -64 4 -27 9 -52 10 -55 2 -3 7 -28 10 -56 4 -27 13 -86 21 -130 8
-44 17 -98 20 -120 4 -22 15 -94 26 -160 11 -66 22 -133 25 -150 3 -16 9 -52
14 -80 6 -27 12 -67 15 -89 2 -21 7 -46 9 -55 3 -9 7 -36 10 -61 5 -41 30
-185 41 -237 l5 -23 -405 0 -405 0 5 28 c3 15 8 43 11 62 3 19 7 42 9 50 2 8
7 35 10 60 6 44 20 130 30 180 3 14 8 45 11 70 3 25 8 54 10 65 2 11 9 47 14
80 5 33 12 71 15 84 2 12 7 42 9 65 3 22 10 66 16 96 6 30 13 71 16 90 3 19 7
46 10 60 2 14 9 52 14 85 5 33 12 74 15 90 3 17 8 46 11 65 3 19 8 49 11 65 2
17 8 53 13 80 6 28 12 66 14 85 3 19 9 60 15 90 5 30 12 69 15 85 3 17 15 91
27 165 11 74 23 144 25 155 3 11 7 36 10 55 3 19 7 42 9 50 2 8 7 35 10 60 8
58 32 202 40 240 2 8 4 24 4 34 2 33 9 13 15 -37z"/>
<path d="M3942 6998 l3 -2823 400 0 400 0 2 735 c1 404 3 994 3 1310 l0 575
502 0 503 0 1 303 1 302 -503 0 -504 0 0 908 0 907 701 0 c385 0 702 2 704 6
4 6 7 249 6 467 l-1 132 -1110 0 -1110 0 2 -2822z"/>
<path d="M6530 6996 l0 -2824 1109 0 1110 0 -2 302 -2 301 -692 1 c-380 1
-697 3 -705 6 -11 5 -13 425 -13 2522 l1 2516 -403 0 -403 0 0 -2824z"/>
<path d="M9162 6998 l3 -2823 402 -1 403 -1 0 2823 0 2824 -405 0 -406 0 3
-2822z"/>
<path d="M10510 9794 c6 -15 44 -119 86 -233 42 -113 80 -215 85 -226 5 -11
25 -65 45 -120 19 -55 64 -176 99 -270 78 -209 185 -499 362 -975 74 -201 177
-479 229 -617 l93 -253 -50 -147 c-28 -82 -59 -173 -69 -203 -101 -302 -251
-732 -260 -749 -6 -12 -8 -21 -6 -21 3 0 -5 -28 -18 -62 -13 -35 -58 -166
-101 -293 -42 -126 -81 -239 -85 -250 -5 -11 -34 -94 -65 -185 -116 -343 -167
-492 -251 -735 -47 -137 -88 -257 -91 -266 -4 -15 30 -16 398 -15 l404 1 58
180 c32 99 67 203 77 230 34 91 650 1961 650 1973 0 6 4 13 9 17 6 3 53 -126
106 -287 52 -161 99 -302 104 -313 5 -11 64 -189 131 -395 67 -206 126 -384
130 -395 5 -11 40 -117 79 -235 39 -118 112 -341 163 -495 l93 -280 398 -1
c226 -1 397 2 397 7 0 5 -42 134 -94 287 -51 152 -110 327 -130 387 -21 61
-40 117 -43 125 -10 27 -194 565 -196 575 -7 27 -80 242 -87 260 -5 11 -32 88
-59 172 -28 83 -125 371 -216 639 l-165 487 146 391 c81 215 162 434 180 486
19 52 38 104 43 115 5 11 24 58 41 105 17 47 46 126 64 175 73 199 209 563
227 610 11 28 84 223 163 435 l143 385 -400 3 c-220 1 -402 0 -404 -2 -2 -2
-134 -361 -292 -797 -159 -437 -317 -870 -351 -964 -34 -93 -82 -225 -106
-293 -56 -159 -58 -161 -72 -125 -20 53 -126 344 -234 643 -89 246 -541 1491
-550 1513 l-10 27 -404 0 -404 0 10 -26z"/>
</g>
</svg>
